<svg version="1.1" id="Layer_1" xmlns="http://www.w3.org/2000/svg" xmlns:xlink="http://www.w3.org/1999/xlink" x="0px" y="0px"
	 width="100%" viewBox="0 0 1024 1024" enable-background="new 0 0 1024 1024" xml:space="preserve">
<path fill="currentcolor" opacity="1.000000" stroke="none" 
	d="
M447.337982,806.837280 
	C444.245239,815.023743 438.358093,821.175415 432.204315,827.486206 
	C436.971100,808.995300 432.503479,790.010010 437.076233,771.645203 
	C431.882538,776.090820 427.717407,780.646729 427.996216,787.930298 
	C428.177643,792.671082 426.196930,797.061462 423.345917,800.890503 
	C406.587616,823.397766 392.209930,847.349976 379.738800,872.467896 
	C379.543457,872.861267 379.034058,873.098755 377.879120,874.086365 
	C378.294128,869.159546 380.354279,865.577698 381.623779,861.843201 
	C384.301849,853.964966 387.337646,846.208862 390.161835,838.379272 
	C390.948792,836.197510 391.772949,833.994934 391.639709,831.592651 
	C391.444427,828.072021 391.218719,824.528259 395.332001,822.878479 
	C394.346191,821.108704 392.985077,823.193115 391.841736,821.584961 
	C393.499756,813.255798 395.523804,804.561340 396.803497,795.724121 
	C397.944122,787.847290 399.123260,780.130249 391.928040,773.606445 
	C397.103485,771.999817 400.381104,769.497009 400.152832,764.317261 
	C396.709534,762.551208 390.338013,768.891785 389.578705,759.970703 
	C388.031555,761.082031 386.283142,761.963257 383.696289,762.026855 
	C379.184357,762.137817 376.308502,765.964905 373.971039,769.765076 
	C368.126678,779.266479 362.249023,788.747559 356.338928,798.208191 
	C355.585846,799.413696 354.559662,800.448608 353.718536,801.490112 
	C352.646393,800.886536 352.653778,800.200195 352.857117,799.585571 
	C355.783173,790.740173 358.596130,781.853394 361.740021,773.085571 
	C363.466827,768.269714 365.687866,763.743591 369.905426,760.290405 
	C374.476532,756.547668 373.434479,748.608826 368.239838,745.206665 
	C366.356873,743.973450 363.954041,743.942932 362.144989,742.144897 
	C360.718567,740.727234 358.393036,740.214294 356.354950,739.246338 
	C349.269348,746.968994 339.053162,750.875854 333.137695,759.704834 
	C328.510712,766.610718 323.966736,773.572205 319.345551,780.481934 
	C318.598724,781.598572 318.961975,782.635132 319.062469,783.795227 
	C319.260864,786.084290 317.879395,786.990723 315.968567,787.115662 
	C313.858521,785.702881 316.593384,782.419739 313.717773,781.980103 
	C311.313232,781.612427 309.434662,783.099548 307.702911,784.868469 
	C299.059082,793.697632 291.839417,803.689392 284.397461,813.476929 
	C278.326660,821.461121 270.794495,827.605835 262.403351,832.839539 
	C261.096161,833.654907 259.603882,834.809753 257.864624,833.725586 
	C257.329285,832.337219 258.288452,831.881592 259.156403,831.390503 
	C266.634735,827.158813 273.122345,821.799500 278.355164,814.923279 
	C279.494080,813.426636 280.443878,812.100769 280.541901,810.104370 
	C280.625183,808.406799 282.284119,806.598267 279.928986,805.267700 
	C277.755707,804.039917 276.600861,806.027283 275.161377,806.946289 
	C273.243835,808.170349 272.147583,811.218750 268.901276,809.068420 
	C266.465088,807.454712 266.097046,805.655212 267.323395,802.948120 
	C270.406403,803.533875 273.931122,804.382385 275.451660,800.627686 
	C276.469635,798.113892 276.084412,795.117554 273.921631,793.206360 
	C270.880127,790.518738 269.532318,794.850159 267.216003,795.339172 
	C266.242096,794.283325 266.988312,793.410156 267.414307,792.572021 
	C268.711121,790.020325 268.629028,786.050598 272.340149,785.747498 
	C276.530914,785.405273 278.715393,788.813293 280.725769,791.922607 
	C281.441010,793.028748 281.795624,794.361389 282.417694,795.536133 
	C283.544464,797.664062 285.335114,798.278320 286.536011,796.014709 
	C287.785645,793.659180 289.717804,793.028687 291.853760,792.086365 
	C294.232300,791.036926 297.029968,789.679688 294.773712,786.124878 
	C293.450256,784.039734 294.988678,782.733154 296.095459,781.299744 
	C298.268768,778.484924 298.119171,775.974426 295.505585,773.365356 
	C291.947205,769.813171 288.637451,766.011902 285.597992,761.929382 
	C289.632568,764.184021 293.847443,766.051758 296.551544,769.966003 
	C301.274597,764.955872 297.238770,761.966431 293.906464,758.606750 
	C297.561920,754.139709 294.845825,751.117493 291.589691,748.152161 
	C287.890381,744.783203 285.401215,740.545898 282.228394,735.339355 
	C286.377014,736.135864 287.908356,738.619446 289.852386,740.424133 
	C294.641388,744.869812 298.544769,750.182800 306.130463,750.844360 
	C312.030365,751.358887 315.865234,750.298096 318.873352,744.817322 
	C319.419464,743.822266 320.515564,743.124084 321.038177,742.122253 
	C322.065155,740.153503 325.455841,738.420776 321.544403,735.749817 
	C320.635040,735.128906 322.096558,733.029846 322.620972,731.650024 
	C325.617004,723.767578 328.893250,716.003113 332.705902,708.481262 
	C333.856720,706.210876 333.867188,704.609314 331.661621,702.903687 
	C326.923279,699.239441 322.363922,695.343140 317.745605,691.524536 
	C312.862183,687.486877 307.367432,685.719849 301.065155,687.061035 
	C298.791565,687.544800 296.644440,686.859253 294.763336,685.968750 
	C289.062561,683.269775 285.399536,685.773560 281.919464,690.069519 
	C274.581116,699.128357 267.321289,708.277405 258.568756,716.072144 
	C253.637115,720.463989 247.677185,723.848572 245.385391,730.194214 
	C244.442780,730.236694 244.035721,730.386536 243.804123,730.246460 
	C235.349472,725.131409 235.436111,725.244446 227.473984,731.003906 
	C220.130676,736.315613 214.130661,743.046570 207.578598,749.193420 
	C204.972183,751.638733 202.497162,753.723572 198.996796,750.652161 
	C197.655563,749.475342 196.166382,749.935425 194.789581,750.656616 
	C191.995224,752.120483 188.224106,752.543640 186.234421,754.241089 
	C182.038849,757.820557 176.692886,758.862549 172.414780,762.087708 
	C169.993896,763.912781 167.474686,768.962708 163.018097,763.845581 
	C162.258774,762.973755 158.781601,764.921326 156.698242,766.018860 
	C154.840851,766.997253 153.217819,768.644714 150.524673,768.409241 
	C150.399643,766.228821 152.087936,765.172485 153.322128,764.144653 
	C170.495224,749.843933 184.655914,732.378601 201.910324,718.131348 
	C208.298340,712.856812 213.994919,706.624451 219.402130,700.311035 
	C227.273392,691.120605 236.464798,683.500000 245.916382,676.100037 
	C247.480667,674.875305 249.010864,673.532654 250.272644,672.009094 
	C255.104065,666.175354 261.219971,662.448669 268.361694,660.064697 
	C274.809113,657.912415 280.219299,653.832153 285.851349,650.065125 
	C280.382324,650.330383 275.202057,652.208496 269.336761,650.912964 
	C274.245880,647.831543 277.771210,644.187012 277.345459,638.204468 
	C275.434906,636.505432 273.199158,638.082825 271.501892,637.819946 
	C269.768799,636.453735 271.781982,634.643066 269.892334,633.085693 
	C264.147980,639.082825 255.426453,635.467896 248.751541,639.406921 
	C247.982513,639.860718 246.474792,640.549194 246.202454,639.253845 
	C245.415009,635.508057 243.349335,637.984924 242.180435,638.465332 
	C236.649734,640.738159 231.275955,643.420715 225.409241,644.777039 
	C221.927261,645.582031 218.408310,646.250183 216.640701,641.800842 
	C215.545044,639.042847 213.047089,641.373352 211.096375,640.513916 
	C214.453690,633.662781 221.304382,629.547607 224.399063,622.028076 
	C217.213013,619.613892 209.995102,620.393250 203.049011,619.383667 
	C199.477768,618.864685 195.866760,619.519043 192.260895,618.007751 
	C189.641434,616.909912 187.265015,618.639099 185.751266,621.228882 
	C182.485535,626.816162 177.993103,629.919556 171.057434,629.485840 
	C167.214645,629.245544 163.282272,630.438110 158.812241,631.065979 
	C160.131409,628.009277 162.554520,627.446777 164.760651,626.606323 
	C174.555420,622.874756 184.138443,618.743408 192.986526,613.002258 
	C195.737488,611.217346 198.885025,609.913940 202.009247,608.858521 
	C210.878311,605.862488 216.132660,598.614197 222.058807,592.172119 
	C224.608124,589.400879 223.769043,586.700745 221.111694,584.363831 
	C218.322510,581.911072 214.780304,580.850830 210.276810,578.819885 
	C222.495773,573.993408 234.146622,570.459351 244.742889,564.231140 
	C241.124573,560.097168 235.789307,561.739197 231.413635,559.420288 
	C235.943893,555.696838 235.340454,549.964050 237.977539,545.802185 
	C235.026779,541.097290 230.512634,542.445496 226.502838,542.205261 
	C224.450516,542.082336 222.316254,542.898376 221.648834,539.594421 
	C221.306107,537.897827 218.913055,538.145874 217.241226,538.137634 
	C201.082535,538.058228 184.973373,535.626831 168.902985,535.794067 
	C151.585770,535.974182 134.995468,531.577820 117.958694,530.482788 
	C112.766853,530.148987 107.710190,531.271484 102.595062,531.711121 
	C100.572678,531.884949 98.955864,532.908569 97.972473,529.967468 
	C97.436874,528.365601 95.182938,528.531921 93.517380,528.368286 
	C91.438545,528.164185 89.238113,529.008057 86.903610,527.544434 
	C88.968636,525.769836 94.819046,527.623901 92.040237,521.886658 
	C96.328812,521.421692 100.838043,522.660950 103.459480,518.021057 
	C104.076645,516.928711 106.022675,517.443970 107.274078,517.736938 
	C117.535110,520.138977 127.020988,516.817688 136.549973,513.858398 
	C138.298965,513.315247 139.983749,512.332947 141.853119,512.810303 
	C144.971497,513.606506 147.014130,513.546753 150.002060,510.854919 
	C153.041901,508.116272 158.548813,509.230316 163.014160,509.941284 
	C164.814133,510.227844 166.592926,510.702301 168.346695,511.210754 
	C170.722321,511.899445 173.059814,511.586975 173.766800,509.166656 
	C174.456512,506.805542 172.018784,505.568146 170.259811,505.031921 
	C165.415771,503.555115 160.952011,500.388702 155.444595,501.504730 
	C154.381332,501.720184 153.104950,501.371613 152.304077,500.323608 
	C154.420013,491.423676 157.794296,488.917175 165.728958,489.537842 
	C168.506882,489.755127 169.452652,492.198059 171.585083,492.951721 
	C177.571686,495.067413 183.957840,495.577087 190.124237,495.935760 
	C194.729446,496.203613 199.879501,496.816406 204.470398,493.920959 
	C206.004211,492.953583 207.219040,492.275970 207.540802,490.543671 
	C207.917816,488.513947 206.619156,487.359741 204.986572,486.760651 
	C200.090408,484.964081 199.021729,479.754517 195.528687,476.572662 
	C206.070831,480.292542 217.050720,482.727325 225.436752,490.659119 
	C226.645050,491.802002 227.842957,493.018433 229.242691,493.881104 
	C231.154892,495.059631 233.364136,496.936371 235.443863,494.455505 
	C237.276505,492.269409 237.411880,489.715332 235.917404,487.031158 
	C233.998581,483.584778 230.361008,481.858551 227.652313,478.447815 
	C229.814362,477.848114 230.702087,476.255798 231.214066,474.543579 
	C233.929520,474.375946 237.653824,476.743469 238.338730,473.026520 
	C239.000839,469.433289 234.789978,469.235138 232.365662,468.395233 
	C215.801712,462.656860 199.540558,456.195038 183.718689,448.642120 
	C183.492203,448.534027 183.428543,448.084869 182.887650,446.961609 
	C195.473145,449.670380 207.484360,452.038239 217.769272,459.242920 
	C219.087738,458.938354 219.734940,457.959473 219.626053,457.023163 
	C219.154800,452.970886 218.900452,449.256805 221.390060,445.393921 
	C222.807404,443.194733 220.546356,440.704468 217.968613,439.636139 
	C213.511139,437.788696 209.052811,435.933594 204.530792,434.254181 
	C199.420853,432.356415 197.892746,429.842682 200.696075,425.267365 
	C202.457016,422.393341 201.643387,420.507507 200.680069,418.088562 
	C198.931091,413.696899 199.538193,412.842957 204.293427,412.711273 
	C206.453812,412.651428 208.691040,412.952789 210.756439,412.485260 
	C213.365173,411.894775 214.821030,409.318665 212.422928,407.854431 
	C209.284439,405.938202 207.849762,403.724854 205.982147,400.629303 
	C203.726166,396.890106 199.868103,393.357452 196.038834,390.353607 
	C191.036972,386.429962 189.264496,380.203125 184.446060,374.620819 
	C189.491882,374.269257 191.376984,376.774414 193.356537,378.735352 
	C196.403290,381.753448 199.445328,383.990082 203.869537,381.435333 
	C206.028015,380.188965 207.710800,381.471558 209.285599,382.737793 
	C211.881180,384.824860 214.437286,386.962738 216.964279,389.132416 
	C217.862259,389.903442 218.841843,391.090149 219.953445,390.563721 
	C224.250977,388.528351 225.580353,391.632721 226.988708,394.458740 
	C228.466492,397.423981 230.536224,399.246307 234.023041,398.981964 
	C236.817352,398.770081 237.979111,401.984680 240.590714,402.146179 
	C246.803497,393.357086 245.477127,385.941956 236.445084,382.502289 
	C240.226562,381.299866 243.159286,382.603912 245.502853,384.538879 
	C249.400070,387.756805 252.066208,383.888123 254.955460,382.964600 
	C257.266052,382.226013 255.456650,379.204742 254.944702,377.285889 
	C258.909149,373.064850 258.892853,370.406067 254.393478,369.891022 
	C239.816437,368.222260 228.814468,358.113739 215.272537,354.173004 
	C213.202698,353.570648 211.202301,352.368011 209.020981,352.837128 
	C206.536392,353.371460 204.939697,351.762238 204.212372,350.267914 
	C203.210083,348.208649 205.480621,347.204651 206.989502,346.214508 
	C208.072983,345.503510 209.527863,345.230988 210.086090,342.914337 
	C206.379837,340.008240 201.580978,339.715179 197.416290,340.754303 
	C190.367371,342.513031 186.011902,340.328705 182.644073,334.246338 
	C180.389862,330.175201 177.649048,326.379730 175.961090,321.989410 
	C174.773422,318.900330 171.828644,316.413391 169.247131,316.858582 
	C164.850983,317.616699 164.872101,314.624939 162.998642,311.922150 
	C166.618774,311.760986 169.651321,311.625977 173.699371,311.445770 
	C170.875198,304.936676 164.341217,302.369049 161.432358,296.851837 
	C158.507782,291.304779 154.980881,286.075256 151.897888,279.872437 
	C157.556778,282.566284 162.551514,281.294464 167.571274,278.923645 
	C169.257050,278.127472 170.438980,280.267273 171.872391,281.008514 
	C176.293442,283.294739 180.290695,287.081329 185.937683,284.250549 
	C187.582321,283.426117 189.741837,285.020203 189.715347,285.775024 
	C189.545654,290.611450 196.963684,292.494415 194.094177,298.411255 
	C196.717880,296.067657 199.122803,295.673920 202.056671,297.175018 
	C203.768921,298.051056 205.696991,297.316071 206.885712,295.616028 
	C208.205811,293.728058 206.853409,292.483429 205.596344,291.370758 
	C201.815857,288.024597 201.207489,282.927704 198.112183,278.747772 
	C201.562149,277.244202 203.819611,278.703186 205.998734,280.512543 
	C210.994354,284.660522 215.978577,288.822296 220.989746,292.951385 
	C222.144073,293.902527 223.268677,295.031799 224.610413,295.590485 
	C233.566422,299.319611 237.287598,306.992950 240.559509,316.506104 
	C240.895721,317.037323 242.950256,315.147858 243.872620,316.745972 
	C243.919189,317.881927 243.142532,318.128876 242.307632,318.344421 
	C238.390091,319.355774 238.767303,321.232544 241.320480,323.468048 
	C242.823776,324.784332 244.340942,326.096802 245.947891,327.280670 
	C255.380417,334.229736 264.827240,341.159607 274.298187,348.056213 
	C279.287933,351.689606 284.417450,349.569672 289.581726,348.602509 
	C289.391479,346.987030 288.325470,347.442627 287.626862,347.304565 
	C286.341492,347.050537 284.602783,347.127258 284.947571,345.207794 
	C285.265076,343.440430 286.869080,344.009796 288.197205,343.935547 
	C296.571564,343.467438 304.728790,342.479156 309.771332,334.352844 
	C310.807404,332.683228 312.151001,331.001160 313.757965,329.936066 
	C316.248230,328.285400 317.240387,326.531799 315.408112,323.792694 
	C324.277313,323.241547 328.008301,317.798340 325.163788,310.033356 
	C324.390503,307.922302 324.484619,305.709595 324.723724,303.605103 
	C325.418671,297.488678 322.214813,292.078033 321.820770,286.073029 
	C321.550964,281.961334 307.451111,279.474182 304.274506,282.565613 
	C300.334351,286.400208 296.509644,290.353119 292.593567,294.212891 
	C291.068512,295.716034 289.520844,297.258301 286.781921,297.642944 
	C286.630432,294.218994 289.408844,292.731171 290.684937,290.463104 
	C292.541046,287.164093 295.916565,285.150360 295.109406,279.863373 
	C294.342072,274.837280 292.687408,275.623962 289.134155,277.110260 
	C290.823181,273.041260 293.163513,269.827057 292.281738,265.617889 
	C288.087189,265.365143 287.316528,270.664215 283.111328,270.699982 
	C283.483917,267.004303 285.243500,264.018005 287.670105,261.744141 
	C290.658173,258.944092 293.513824,256.596527 289.078003,252.807770 
	C291.159210,251.415039 293.385376,253.926544 295.321075,251.390793 
	C293.536804,248.705246 290.224823,246.535110 290.416443,242.465103 
	C290.455078,241.644302 288.824066,240.224701 287.231018,240.814163 
	C285.769104,241.355103 284.534485,242.362381 284.417450,244.020660 
	C284.266907,246.153137 284.380859,248.304291 284.380859,250.879227 
	C276.050903,250.402222 271.925049,256.718597 266.065643,262.499756 
	C266.696808,255.736359 270.821503,253.241058 274.334930,250.511932 
	C276.191681,249.069687 277.589661,248.044540 277.090424,245.349426 
	C276.634857,242.890259 275.802338,241.493958 273.099854,241.163467 
	C271.159027,240.926132 269.273834,239.972778 268.764221,236.713425 
	C273.723785,237.771210 278.805756,238.149597 281.176208,232.923798 
	C283.450623,227.909760 278.454071,224.045624 277.947418,219.162827 
	C281.662262,219.480698 286.940125,216.915665 287.695709,222.468323 
	C288.821655,230.742096 295.741364,234.677628 299.554382,240.863388 
	C300.465271,242.341125 302.267456,243.263000 303.638367,244.464874 
	C307.325500,247.697388 310.104156,247.008499 312.055847,242.485321 
	C311.473602,240.397232 308.316162,240.135025 308.392975,236.655807 
	C315.003632,239.377853 320.535187,243.184219 324.572601,248.493942 
	C327.448975,252.276764 331.931885,255.389969 331.824005,261.114075 
	C331.805878,262.076660 333.326080,263.285370 334.386719,264.015381 
	C340.609192,268.298218 344.388458,274.617249 348.512817,280.658234 
	C349.168396,281.618439 349.778687,282.620544 350.525574,283.505707 
	C356.780457,290.918579 357.046844,290.992523 364.503876,284.697174 
	C366.048706,283.392975 367.872589,283.427826 369.525970,282.788177 
	C373.570038,281.223663 373.817505,278.052155 371.553314,275.733307 
	C367.987488,272.081329 366.421509,265.671265 359.387299,266.068176 
	C357.980804,266.147522 356.648651,264.338104 355.907471,262.310669 
	C360.065338,260.721985 358.931915,257.677002 357.767151,254.654739 
	C355.387939,248.481491 354.861786,241.974045 353.596985,235.679901 
	C355.096405,235.217651 355.555176,235.852478 355.847687,236.368118 
	C361.459351,246.262039 370.187408,253.857803 375.927429,263.661255 
	C378.165649,267.483948 381.949097,269.406006 385.969849,270.615509 
	C390.202942,271.888916 393.634521,269.026825 392.597870,264.703064 
	C391.310516,259.333679 392.413727,254.621521 394.119965,249.625687 
	C395.046631,246.912369 394.661835,243.702927 394.626160,240.720154 
	C394.569183,235.963577 395.577057,231.511871 397.609375,227.214066 
	C400.330994,221.458771 398.840576,214.556549 393.940430,210.572083 
	C391.715027,208.762512 390.187775,207.117661 392.648651,204.479004 
	C393.704834,203.346481 393.888153,202.178589 392.980530,200.882355 
	C390.712677,197.643417 390.246704,193.775818 389.291412,190.093109 
	C388.450562,186.851440 387.789185,183.599518 384.807495,181.452240 
	C384.182709,181.002304 383.765350,180.130203 383.477264,179.367691 
	C380.718292,172.065063 380.987427,164.177017 378.999908,156.661118 
	C382.831451,161.794083 384.436279,167.896790 387.208618,173.432602 
	C390.337463,179.680237 392.159729,186.585449 397.688995,191.622162 
	C401.600494,195.185242 402.209351,200.981766 405.148193,205.400253 
	C406.421021,207.313934 407.334412,209.335724 409.268951,210.749344 
	C414.098999,214.278793 418.527283,218.064285 421.698853,223.412415 
	C423.346100,226.190201 426.567078,228.248611 429.453033,230.019348 
	C432.496490,231.886749 434.938843,230.799149 435.626862,227.048538 
	C435.862366,225.764908 435.337982,223.988159 436.645386,223.361221 
	C445.332031,219.195801 449.465271,209.921036 457.452698,205.014709 
	C458.132294,204.597275 458.830231,204.054382 459.835144,204.590958 
	C459.926666,204.967316 460.300354,205.620636 460.117035,205.879501 
	C455.780487,212.002960 457.452728,219.456329 455.640289,226.147156 
	C454.463226,230.492355 454.233093,235.320969 456.421783,239.338104 
	C458.836151,243.769409 457.692444,245.701843 453.228363,246.721542 
	C452.616516,246.861328 452.075073,247.309341 450.110962,248.353958 
	C454.985596,248.905457 458.233032,249.041946 461.453094,246.921326 
	C463.966248,245.266251 466.381805,244.313095 469.528992,246.638901 
	C473.559845,249.617752 478.205841,247.935013 480.649780,243.107010 
	C485.517609,245.657471 486.919525,243.360794 487.889374,238.560593 
	C489.065094,232.741470 491.264099,227.088593 493.446655,221.531204 
	C494.474274,218.914551 494.748779,216.387924 494.560638,213.736160 
	C493.583435,199.962311 494.751770,186.181961 494.207184,172.365723 
	C493.641113,158.005005 495.983673,143.525284 497.124146,129.103149 
	C497.910309,119.161537 498.806519,109.228546 499.678436,99.293892 
	C499.787384,98.052086 499.337219,96.561661 501.196167,95.669853 
	C503.214874,97.494583 502.052460,100.841003 504.232605,102.538254 
	C505.604187,103.218269 505.544342,100.582497 506.867889,101.245399 
	C508.554413,109.813820 510.435730,118.213081 511.800049,126.695488 
	C512.769958,132.725571 512.259521,139.026047 515.772339,144.498734 
	C516.483582,145.606705 516.824036,146.944183 518.042236,147.697617 
	C520.212952,149.040146 520.736084,151.102600 520.056885,153.351791 
	C519.301880,155.851974 519.595764,158.295670 519.889954,160.770966 
	C520.093750,162.485367 519.463501,164.636673 522.063721,165.185364 
	C524.389893,165.676239 525.888123,164.793945 526.749756,162.570160 
	C527.029663,161.847656 527.705139,161.278442 528.274536,160.542526 
	C531.271606,161.211853 531.592102,163.759552 532.309875,165.820297 
	C535.048340,173.682129 536.558777,181.860825 538.398865,189.957230 
	C539.497131,194.789551 540.522705,199.583191 545.368530,202.621979 
	C548.664001,204.688507 548.741638,207.539078 546.293335,211.107971 
	C542.347900,216.859314 539.146790,223.124557 535.695190,229.208984 
	C534.900513,230.609711 533.823364,232.112961 535.738342,234.293213 
	C540.029602,231.024872 544.970337,231.318085 550.065247,232.542313 
	C552.420471,233.108231 553.713257,231.448792 554.644287,229.511429 
	C557.629639,223.299164 562.017334,218.092163 566.477051,212.911469 
	C568.583679,213.367310 566.372131,215.993057 568.786804,216.495743 
	C570.895142,214.787933 573.421509,213.127609 571.336060,209.492630 
	C570.891846,208.718414 570.607361,207.837250 571.168274,207.150345 
	C573.847595,203.869522 577.662598,207.510132 580.878052,205.652695 
	C581.971558,205.021042 582.281494,207.799973 582.363892,209.247910 
	C582.742065,215.889465 580.627136,222.477737 581.955444,229.147949 
	C582.269409,230.724564 581.703003,232.512817 583.881287,234.527161 
	C595.119080,225.207367 601.377258,211.360229 611.675781,201.743530 
	C622.487732,191.647339 626.387817,176.577698 639.760193,167.322968 
	C639.009094,173.446747 637.069580,177.971008 634.425293,182.192337 
	C629.761414,189.637833 625.727112,197.548477 620.773865,204.697998 
	C614.338867,213.986176 616.968445,223.846008 616.330444,233.557449 
	C616.232971,235.041245 616.313049,236.705963 617.945007,237.456268 
	C619.590271,238.212738 620.574951,237.137634 621.771851,236.041595 
	C625.384949,232.733047 630.129761,231.778732 634.786133,230.341965 
	C631.051147,233.872665 626.973694,236.868362 624.915955,241.759857 
	C624.034851,243.854263 623.234131,245.611694 624.249634,247.865402 
	C625.498535,250.636765 625.185242,253.736343 623.746643,256.076813 
	C621.597717,259.573029 622.616150,261.786896 625.634338,263.462341 
	C627.995239,264.772888 633.053467,262.049866 634.134705,259.157257 
	C634.351868,258.576294 634.338562,257.909241 634.371704,257.685638 
	C644.589417,256.510162 654.714722,256.105499 661.341980,246.340714 
	C661.119141,253.370468 657.472412,258.771851 654.816589,264.540314 
	C653.004456,268.476318 651.809631,272.670563 647.957092,275.459229 
	C646.435608,276.560516 647.223022,278.737976 648.799988,279.724274 
	C652.182251,281.839722 655.713379,283.718048 659.194214,285.674377 
	C659.968079,286.109314 660.912170,286.231812 661.558289,285.646088 
	C671.613281,276.531403 685.255310,271.959290 693.523560,260.648743 
	C696.794922,256.173584 699.471985,251.263977 702.965149,245.680176 
	C696.817078,246.290161 695.502869,252.822662 690.552063,253.215363 
	C690.333984,252.675507 690.029419,252.218872 690.123413,252.111649 
	C697.318420,243.904022 700.969666,232.348724 713.114258,228.765503 
	C716.627441,227.728958 719.687988,224.883438 722.727722,222.567535 
	C733.359436,214.467514 745.114563,208.228821 756.731934,201.755798 
	C757.854675,201.130203 758.978577,200.196198 760.488525,201.130783 
	C760.515564,203.482544 758.390564,203.902817 756.987000,204.781097 
	C753.600586,206.900223 749.990601,208.665710 746.631409,210.823700 
	C741.283203,214.259460 740.686890,217.663986 742.891357,223.609741 
	C744.896118,229.017059 747.617920,232.359741 754.007141,231.952560 
	C756.129333,231.817307 757.326050,231.041946 758.751160,229.933548 
	C760.896973,228.264725 762.466858,225.558746 765.779785,225.746964 
	C764.104248,235.759247 754.482849,240.747009 746.070312,236.034821 
	C743.406372,234.542648 741.819763,235.485214 741.490540,238.260071 
	C741.203064,240.682678 741.430664,243.166412 741.430664,245.819748 
	C738.034424,246.276489 735.625427,245.383636 734.771240,242.100006 
	C733.049622,235.481827 732.165649,235.171875 727.026855,239.763428 
	C726.663818,240.087814 726.423523,240.549622 725.900146,241.249893 
	C728.185547,244.130600 728.408203,246.840637 726.009888,250.346603 
	C724.065369,253.189178 727.484131,255.411926 729.406311,257.300964 
	C732.363098,260.206696 735.186951,263.076691 735.914368,268.008575 
	C731.593201,266.117035 730.321838,260.675751 723.420593,260.598297 
	C729.054626,264.762360 726.299133,269.441803 726.982117,273.684601 
	C727.008545,273.848938 727.125244,274.041412 727.073425,274.169647 
	C724.045471,281.660370 730.368347,285.088226 733.823120,289.769318 
	C734.690125,290.944061 735.882812,291.970856 735.911377,293.955261 
	C733.311707,295.058960 731.556335,293.494507 730.013184,291.864929 
	C726.120544,287.754303 722.322327,283.552948 718.534607,279.344543 
	C713.365234,273.601044 702.914246,275.415009 700.297363,282.611359 
	C699.322083,285.293304 697.365662,287.343079 696.128052,289.906036 
	C693.446716,295.458832 698.041565,300.651764 696.120117,305.989349 
	C695.744873,307.031647 696.330627,308.434235 695.921143,309.447571 
	C691.908081,319.377594 698.693237,324.780029 705.039490,329.629150 
	C713.501404,336.094788 722.718750,341.350067 733.594971,343.194366 
	C740.258728,344.324341 746.222961,343.894440 751.256836,339.056976 
	C764.255371,326.565399 777.292542,314.147827 794.099426,306.691284 
	C795.271606,306.171234 796.443237,305.382935 796.796814,303.863953 
	C792.857178,298.608765 787.971069,302.747894 783.332153,303.190338 
	C783.340271,298.780151 787.342773,299.775208 788.912292,297.845856 
	C791.015991,295.259796 792.735046,295.931519 795.240906,298.451813 
	C798.122803,301.350281 802.121887,297.771332 805.858765,298.200684 
	C805.913696,298.585388 806.186401,299.152985 806.008545,299.456573 
	C804.210754,302.524658 803.009216,305.733093 806.046509,308.561523 
	C809.209473,311.507050 812.122620,308.834534 814.550415,307.174408 
	C821.281372,302.571930 827.781433,297.629883 834.334961,292.771088 
	C836.261658,291.342682 838.517273,289.695038 840.684387,290.297272 
	C848.007141,292.332397 853.664795,287.074066 860.313660,286.341339 
	C863.011719,286.044006 865.096497,284.287292 867.111694,282.442352 
	C869.441772,280.309143 871.391602,277.830597 875.609436,280.241821 
	C878.213623,281.730560 881.361023,278.398376 884.351379,277.487427 
	C885.706726,277.074524 886.818237,275.648743 888.479675,276.448456 
	C888.788635,277.986176 887.589722,278.592438 886.692200,279.150299 
	C871.860413,288.369781 860.155518,301.370728 846.644836,312.175568 
	C828.449036,326.727234 810.825256,341.873505 793.542175,357.532166 
	C783.314575,366.798523 772.277588,376.322815 758.374023,380.739105 
	C756.862671,381.219177 755.133179,381.693359 754.387817,383.413025 
	C754.874084,385.034210 756.932983,384.220062 757.635376,385.739624 
	C757.961975,387.756592 756.417175,389.271271 755.645447,391.056854 
	C754.747375,393.134918 752.254883,395.980042 753.948059,397.307648 
	C756.749756,399.504333 759.469910,403.154175 763.815186,402.176819 
	C766.394348,401.596649 768.479248,400.562195 771.133179,402.614105 
	C772.703308,403.828094 775.291809,402.481659 777.363159,401.811310 
	C785.746887,399.098175 793.700073,395.105011 802.435730,393.432281 
	C806.171082,392.717010 810.215271,390.255890 812.077454,396.337128 
	C812.822021,398.768646 815.472656,395.984222 817.556702,397.818695 
	C812.391174,403.518341 804.866333,407.729828 803.884827,417.053741 
	C822.858948,419.567200 841.549866,417.893616 860.290833,415.120697 
	C855.998718,417.844971 851.611755,420.317780 846.786560,421.078003 
	C840.916870,422.002716 835.533569,423.881287 830.327454,426.597534 
	C824.718262,429.524017 819.052795,432.319519 813.097839,434.534576 
	C806.406677,437.023529 802.197449,442.590363 797.798645,447.780731 
	C795.336487,450.685913 797.987061,452.181305 800.019653,453.661224 
	C802.906616,455.763184 806.763672,455.236084 810.211853,457.255005 
	C801.671143,463.101349 791.482971,464.579956 782.700012,470.190582 
	C786.702209,473.638763 791.335754,474.048187 796.421387,475.191315 
	C791.914185,477.851074 793.427612,482.186462 793.004395,485.420715 
	C792.520447,489.118835 791.786072,490.477570 788.266296,490.471954 
	C787.746704,490.471130 787.226074,491.144470 786.459045,491.677460 
	C789.946716,497.026764 794.802490,497.257111 800.582397,495.936554 
	C800.396118,499.423187 802.132751,500.613983 805.437317,500.856293 
	C820.183655,501.937561 834.836670,504.057587 849.536926,505.481201 
	C871.997925,507.656342 893.675293,512.966492 915.205811,519.239929 
	C919.291443,520.430420 923.222656,521.331055 927.316284,519.252197 
	C929.612366,518.086182 932.228333,517.759277 934.574646,518.954346 
	C937.549683,520.469788 940.806152,519.234070 943.780579,520.088318 
	C944.112488,522.824402 940.754456,521.975159 940.351562,524.366272 
	C943.514038,524.942322 946.675781,525.518188 950.991882,526.304321 
	C947.499634,527.914673 944.939392,528.162598 942.340637,528.312805 
	C938.310242,528.545776 934.222900,528.645203 932.475586,533.405396 
	C931.979797,534.755981 930.798584,534.811096 929.540710,534.391479 
	C916.696472,530.106628 903.969666,531.843506 891.210693,534.966553 
	C887.151062,535.960266 882.959106,535.999084 878.928528,534.325378 
	C877.452209,533.712280 875.916077,532.895508 874.048828,534.007935 
	C874.854675,536.358398 878.058044,534.649170 879.018311,537.806091 
	C872.062439,536.345581 865.991760,540.405884 859.355713,538.978821 
	C857.947571,538.676025 856.607910,538.393799 855.995605,540.033081 
	C855.321411,541.838074 856.984009,542.315857 858.059998,542.895020 
	C862.535339,545.303711 867.478577,546.053406 872.429382,546.734131 
	C873.712708,546.910583 875.220276,546.628967 875.904724,548.151062 
	C876.638184,549.782227 875.707397,550.975891 874.743042,552.190369 
	C869.014648,559.405273 865.607544,560.103699 857.453125,555.419861 
	C853.141968,552.943542 848.238953,552.716858 843.620667,551.412048 
	C837.981812,549.818848 832.208557,548.759094 826.396912,549.011841 
	C823.554871,549.135376 819.737793,550.477844 818.926208,553.111389 
	C818.168762,555.569519 820.391907,558.026794 823.761780,558.908630 
	C827.675964,559.933044 830.042053,563.262085 832.223328,566.671326 
	C820.949707,563.419678 808.978638,562.111755 800.133728,553.197388 
	C798.388916,551.438843 796.280945,550.030823 794.288391,548.530212 
	C792.104492,546.885498 790.386719,546.984558 788.286499,549.213501 
	C786.024170,551.614441 786.892944,553.160950 788.463989,555.188782 
	C790.685425,558.056274 793.716736,560.285645 795.539124,564.085938 
	C792.995300,564.331238 791.660400,566.676208 788.436096,565.607605 
	C785.842468,564.747986 785.253235,567.994019 785.596252,570.190491 
	C785.903748,572.159119 786.026489,575.071716 789.397461,573.895386 
	C791.795654,573.058533 793.367676,573.246948 794.823914,575.602661 
	C795.792114,577.168701 797.953918,577.319153 799.698181,577.859802 
	C811.130371,581.403931 822.201538,585.805420 833.643799,592.020020 
	C827.757202,593.238159 823.540710,590.957275 819.071350,589.731689 
	C814.355896,588.438477 810.214722,586.095764 806.069580,583.574280 
	C803.377930,585.924988 803.127441,588.051636 805.485779,590.506836 
	C806.626587,591.694519 807.611389,593.041626 806.823059,594.970703 
	C805.053589,599.300842 806.931030,603.825500 811.786560,605.083679 
	C815.907104,606.151367 819.296753,608.658508 823.290283,609.781189 
	C827.359619,610.925232 827.410217,613.475159 825.972961,616.691956 
	C825.242310,618.327332 824.555664,619.982361 823.969482,621.348022 
	C817.975830,620.976501 812.013000,620.545227 806.042847,620.277771 
	C804.433167,620.205811 802.579895,620.233093 802.317749,622.618896 
	C802.102051,624.581238 802.203674,626.070557 804.622803,626.798828 
	C806.759521,627.442017 808.510803,629.039978 808.081604,631.635925 
	C807.442627,635.501282 810.138000,636.859497 812.857910,637.407532 
	C815.524902,637.944885 816.410278,639.728638 818.004639,641.415771 
	C822.334534,645.997742 826.109680,650.990051 830.012573,655.896423 
	C831.179626,657.363525 833.235962,658.326965 832.953552,660.726624 
	C831.155457,661.489380 829.701965,660.532104 828.914307,659.460754 
	C825.513916,654.835388 820.082764,653.833496 815.435608,651.407715 
	C812.631042,649.943848 810.719727,650.019165 809.979675,654.000488 
	C804.971313,651.286011 799.876648,650.064575 795.774231,646.299316 
	C792.241272,643.056580 788.601807,639.019775 782.669678,640.892090 
	C781.287048,641.328491 780.093872,640.220520 779.497192,638.945007 
	C777.883545,635.495605 773.982361,634.836182 771.593933,632.331848 
	C770.695374,631.389709 769.561768,631.374146 768.467712,632.296082 
	C765.264038,634.995544 764.562744,641.942200 767.158997,645.407776 
	C767.451111,645.797852 767.614441,646.284363 767.857544,646.765808 
	C767.849731,648.999084 763.236633,648.997314 764.997253,651.696289 
	C767.206909,655.083496 770.363464,657.765259 774.654602,658.045776 
	C776.157410,658.143921 777.640381,657.696960 778.752869,659.018921 
	C782.689819,663.697266 788.227600,664.104980 793.702576,664.651306 
	C799.651550,665.244873 804.936768,667.821045 810.026184,670.585510 
	C816.601990,674.157288 822.867615,678.301636 829.249756,682.227051 
	C830.042847,682.714783 830.959839,683.220093 830.787659,685.326416 
	C823.094177,681.331787 815.718384,677.676086 808.512695,673.711121 
	C801.494202,669.849121 794.699585,665.649231 786.202209,665.959961 
	C783.908264,666.043823 781.630249,665.184082 779.901794,663.342163 
	C779.233521,662.630005 778.283142,661.617126 777.510437,661.658447 
	C771.645630,661.972839 767.274841,659.601379 764.039124,653.767395 
	C764.387756,658.694092 762.002075,658.681030 759.237915,658.008057 
	C757.465454,657.576599 755.583740,657.310059 753.985840,656.503906 
	C750.662903,654.827393 748.786133,656.045105 747.512695,659.127258 
	C749.228943,660.984192 751.473816,660.667297 753.600708,660.658325 
	C758.696472,660.636902 763.342346,662.291565 766.719910,665.901550 
	C777.668396,677.603088 791.141296,685.952942 804.244019,694.789307 
	C813.435913,700.988403 820.927185,709.078247 829.111511,716.398132 
	C833.333618,720.174316 837.475952,724.018433 842.045776,727.403015 
	C845.933167,730.282166 848.559509,733.702209 845.906189,739.064941 
	C844.922241,741.053650 847.085083,742.686096 848.212524,744.239502 
	C851.599548,748.906189 855.874023,752.939331 858.783936,758.528015 
	C855.788208,759.242432 854.407715,757.213989 852.647583,756.296875 
	C849.258118,754.530701 846.100891,753.306274 842.554382,756.342957 
	C838.023804,760.222229 830.164673,758.119873 829.201965,750.595520 
	C828.976440,748.832886 828.365173,747.269165 826.499573,748.307739 
	C821.960693,750.834290 817.953552,747.431274 813.635681,747.516113 
	C810.215515,747.583374 810.008545,745.520996 811.680054,742.811523 
	C813.728638,739.490845 815.641724,735.989624 810.543823,733.428772 
	C810.311890,733.312317 810.080750,732.864990 810.111511,732.602539 
	C811.055176,724.542847 803.085449,724.157227 799.535706,719.963928 
	C801.997070,724.285339 806.110779,727.437256 808.420349,732.093689 
	C805.771729,732.966248 805.780518,730.216675 803.977539,730.295593 
	C801.481262,731.883728 798.790649,733.496521 796.560364,736.107849 
	C797.258667,737.360229 797.946350,738.593506 798.567993,739.708374 
	C797.378174,741.261963 796.260742,739.502075 795.508667,739.928162 
	C802.081299,751.223755 815.921265,755.640198 822.134705,767.702637 
	C819.135742,769.268616 816.994995,767.926575 814.889526,766.668823 
	C808.425842,762.807861 802.574524,758.137695 797.039978,753.052429 
	C793.447510,749.751526 789.687378,746.814026 784.555908,746.239868 
	C781.046082,745.847168 779.775024,742.292236 777.166504,740.578430 
	C768.814087,735.090637 764.010925,726.703979 758.505005,717.959961 
	C763.328003,718.551270 764.858154,721.871704 766.020691,724.939453 
	C767.564819,729.014099 770.163269,730.328918 774.160400,729.533936 
	C777.843079,728.801575 782.601929,724.071228 782.633667,721.215027 
	C782.650879,719.665466 781.904968,718.457642 780.419434,718.344543 
	C774.462402,717.890930 772.027344,713.701782 769.839539,708.988831 
	C768.988220,707.154846 767.880310,705.264404 764.681580,703.609314 
	C768.568542,711.278137 772.490173,717.188477 779.263306,720.778809 
	C775.948914,723.467468 774.432556,723.615967 772.352966,720.789062 
	C763.851379,709.232422 751.107117,702.242432 741.447327,691.891724 
	C738.118225,688.324463 732.943420,686.666321 727.968201,685.729492 
	C721.362793,684.485718 715.854309,688.836609 716.210022,695.590454 
	C712.518250,690.727173 709.084839,691.992004 705.006897,694.580933 
	C700.329834,697.550293 696.269348,701.240479 691.828064,704.465210 
	C689.394653,706.232117 689.506775,709.271729 689.073364,711.763123 
	C687.811707,719.016541 686.997437,726.296692 692.665222,732.506348 
	C694.311340,734.309814 695.544067,736.617676 696.509155,738.888611 
	C698.345520,743.209290 702.026062,744.537354 706.070007,745.662231 
	C713.173767,747.638123 718.322998,745.152405 722.830811,739.566162 
	C725.019653,736.853760 727.233093,733.353394 731.957947,732.913818 
	C731.402588,737.631836 727.919922,739.841553 725.773193,742.802673 
	C722.814697,746.883789 722.905151,749.122253 726.854248,751.864319 
	C726.385864,755.370728 725.925903,758.813965 725.478027,762.166809 
	C728.367859,762.978088 729.917603,760.425415 732.981079,761.050354 
	C730.405151,764.895142 727.019836,767.862610 725.583374,772.082153 
	C724.289185,775.883911 724.871338,780.112915 722.459961,783.706543 
	C721.628662,784.945312 722.616455,787.195740 723.738220,788.319275 
	C726.623840,791.209473 730.942627,792.599854 732.382996,797.064819 
	C732.673767,797.966003 734.163818,797.277466 735.072815,796.829651 
	C739.640869,794.578857 741.863281,789.846924 740.677185,784.924988 
	C740.316345,783.427795 739.078003,781.838074 741.408081,780.076416 
	C743.095825,784.856384 746.570740,784.791077 750.705811,784.038391 
	C752.857422,783.646729 755.476990,784.261841 757.252686,785.926697 
	C763.184570,791.488037 769.011108,797.149719 776.321716,800.970642 
	C777.100769,801.377808 778.033142,802.062805 777.658997,804.159607 
	C773.755859,800.690125 768.865967,799.680298 765.170227,796.383179 
	C760.441101,792.164246 754.889038,789.750977 748.516296,789.259460 
	C744.736877,788.967957 742.639526,790.281494 742.058289,794.341858 
	C741.583435,797.659241 742.604004,801.815186 741.033997,804.114380 
	C736.687195,810.480042 740.647217,815.480225 742.680603,820.627502 
	C744.455322,825.120361 739.645630,825.783569 739.524536,829.128052 
	C737.088379,827.528076 735.609741,825.371460 735.937866,823.465149 
	C736.690918,819.089539 733.320679,816.975891 731.843018,813.808167 
	C727.094727,803.629272 719.149658,798.122131 708.459351,795.355530 
	C702.133118,793.718384 698.537231,788.162781 694.246460,783.398621 
	C687.566895,775.982239 682.530884,767.198059 674.939880,760.592285 
	C674.431396,760.149902 674.187805,759.518311 674.980591,758.099915 
	C678.815308,761.413452 681.861206,766.167236 688.376648,766.185852 
	C684.212463,760.802429 680.406982,755.882690 676.538147,750.881042 
	C674.884338,752.364563 676.979065,753.754333 675.596069,754.985291 
	C675.345093,754.930054 674.786743,754.977722 674.514099,754.721497 
	C670.757385,751.189880 667.059448,747.595764 663.306152,744.060242 
	C660.675903,741.582581 658.097168,741.424316 655.517029,744.260437 
	C654.521301,745.354919 653.302856,746.273193 652.090149,747.137451 
	C650.319763,748.399231 646.965271,748.616577 647.910950,751.769958 
	C648.785828,754.687622 648.029236,758.657593 653.339050,759.279541 
	C656.621399,759.663879 659.360657,763.190247 660.362122,766.558472 
	C663.129395,775.865417 665.393433,785.321899 667.393372,794.997192 
	C660.478210,786.306885 651.888184,779.025146 646.801636,769.001587 
	C644.566406,764.596985 639.775330,763.736389 636.482605,760.802734 
	C634.360840,758.912231 631.323669,757.952759 628.399170,757.448975 
	C625.571960,762.157471 624.276367,766.350281 625.828186,772.014282 
	C627.625732,778.574646 624.565674,785.220459 621.624268,791.159363 
	C618.138672,798.197388 617.287354,804.189453 622.780334,810.927063 
	C625.440002,814.189514 624.284180,819.615173 623.413330,823.815552 
	C622.915649,826.216370 622.888916,827.593994 624.712219,828.819336 
	C627.116577,830.434998 628.729004,832.773926 630.710388,834.777649 
	C634.937134,839.051880 637.530151,843.444885 635.467773,849.927612 
	C634.179016,853.978577 636.322998,858.078613 637.801392,861.983337 
	C638.657410,864.244385 639.958496,866.417480 639.415100,870.286255 
	C634.316101,862.678223 628.553528,856.734375 627.858215,848.004456 
	C627.758789,846.756226 628.283691,845.745422 628.932861,844.756165 
	C629.662109,843.644897 629.851929,842.077271 628.604736,841.732056 
	C621.697998,839.820374 619.947815,833.327026 617.087280,828.262756 
	C613.889526,822.601440 610.380066,817.151367 605.595093,813.074402 
	C600.956238,809.122009 598.486206,803.669739 594.108398,799.599915 
	C587.979614,793.902649 586.472107,793.899536 582.768433,801.599792 
	C581.759399,803.697632 580.972473,805.901123 580.040710,808.037415 
	C579.375305,809.563049 579.039978,811.580261 577.867981,812.480835 
	C570.312744,818.286377 566.851135,827.613098 559.481445,833.521118 
	C559.005981,833.902344 558.345459,834.052795 556.761292,834.763794 
	C558.670532,828.132263 561.268127,822.617676 562.545410,816.719971 
	C563.012695,814.562744 563.619080,812.685852 562.368835,810.531738 
	C561.138794,808.412292 561.534973,805.997375 562.225952,803.723328 
	C564.131531,797.451477 564.526184,791.350403 560.520203,785.628906 
	C559.146729,783.667236 560.750916,782.694092 561.953918,781.511780 
	C564.711182,778.802551 567.886108,776.716064 571.695435,775.506958 
	C571.564575,775.124451 571.433777,774.742004 571.302917,774.359497 
	C568.070190,774.359497 564.835327,774.431458 561.605286,774.339050 
	C558.446228,774.248779 555.188965,774.421936 552.161316,773.698792 
	C548.286499,772.773132 545.163574,772.630310 541.563965,775.211426 
	C537.138367,778.384827 532.744507,775.273804 528.174744,773.294312 
	C523.958618,778.124634 524.656616,784.671692 523.441284,790.492737 
	C522.330933,795.810913 522.514832,801.424316 522.365906,806.914062 
	C521.721802,830.659485 521.952271,854.464294 519.101501,878.079590 
	C517.833374,888.584717 518.896912,899.036987 518.208496,909.487427 
	C517.886414,914.375854 517.308228,919.247498 516.786743,924.753113 
	C512.989441,922.065186 516.507263,917.440308 513.301147,915.208374 
	C511.424652,916.702271 513.223572,919.225952 511.161102,920.222534 
	C510.103546,920.052307 509.866333,919.220703 509.875702,918.389099 
	C509.982880,908.855957 506.767670,900.232605 502.674042,891.843872 
	C501.211517,888.846863 501.173706,885.524658 501.860565,882.532288 
	C502.684723,878.941711 502.095673,875.587708 501.634094,872.162476 
	C500.721191,865.388367 499.900330,864.906677 492.218750,867.120239 
	C495.709625,857.712158 490.813629,848.736450 493.638397,839.016418 
	C486.781250,845.457764 490.159180,854.712830 485.227600,861.027527 
	C483.237244,860.567139 482.930634,858.849243 482.491119,857.273438 
	C479.991058,848.309143 477.631226,839.305237 476.706573,830.016052 
	C476.181854,824.744751 474.840027,819.885620 471.104523,815.927673 
	C468.022430,812.661926 468.470184,810.255798 471.536743,806.616028 
	C476.649109,800.548035 479.746948,793.034302 483.648895,785.621033 
	C480.476074,784.642517 477.880951,781.515198 475.086945,785.598450 
	C465.311279,783.197998 465.101685,795.018250 458.235504,796.963562 
	C458.000061,797.030273 457.669128,797.562744 457.733398,797.768494 
	C460.083679,805.289734 454.295746,812.214661 456.702087,820.087280 
	C460.022400,830.950134 460.405762,842.294617 457.852905,854.176147 
	C454.973633,850.867126 455.718781,847.044312 454.786194,843.771912 
	C451.762054,833.161011 452.374695,822.159424 451.686035,811.301453 
	C451.540619,809.008789 451.415161,806.907593 448.235596,806.017639 
	C448.721924,802.020996 451.186951,799.354065 453.016449,796.311646 
	C449.731140,799.430298 445.857544,802.054993 444.615631,807.128967 
	C445.770386,807.005249 446.554199,806.921265 447.337982,806.837280 
M356.005188,485.488525 
	C361.025208,484.086456 359.189728,481.263885 357.558868,478.354553 
	C353.862579,471.760590 349.298492,466.393433 341.097351,465.557709 
	C339.100464,465.354218 337.713318,463.934204 337.460785,461.935913 
	C337.182556,459.733856 338.895935,458.920074 340.889465,457.929291 
	C342.148926,462.558655 346.089081,463.136108 349.659546,464.058319 
	C352.274200,464.733673 353.777344,462.999390 354.355713,460.690857 
	C354.969116,458.242493 353.374237,457.545654 351.252686,457.289337 
	C348.076660,456.905731 347.067261,454.632385 346.360992,451.802185 
	C345.474701,448.250671 346.599030,444.090668 342.791718,441.305634 
	C346.178711,440.109283 347.802216,438.009430 348.654968,435.098206 
	C349.626373,431.781830 347.119873,430.124329 344.922974,427.988983 
	C347.790497,426.866882 349.562714,427.516388 351.235443,429.203156 
	C355.275421,433.276917 359.717712,436.561035 365.933075,435.867218 
	C367.187683,435.727142 367.085022,436.754456 367.402832,437.458496 
	C368.390076,439.645386 369.747742,439.499939 371.279785,438.028320 
	C372.896240,436.475677 372.498718,435.193390 370.851166,433.911438 
	C369.811462,433.102386 367.618622,433.291779 368.217499,430.574097 
	C377.016937,432.444916 374.764160,422.174133 380.005951,419.593353 
	C381.078217,421.333191 379.024841,424.292297 382.041412,424.942383 
	C383.921326,424.761444 384.300201,421.579407 386.687988,422.928955 
	C387.165680,425.065033 384.765961,426.087280 384.914856,428.020111 
	C386.252380,430.908386 388.522736,431.028778 391.130310,429.925903 
	C392.058929,431.476959 390.389801,434.146423 393.166199,434.498413 
	C395.596100,434.806427 397.023529,433.214203 397.941071,431.003113 
	C401.385437,433.841095 405.243652,435.578735 406.436218,440.533142 
	C408.662842,449.782928 412.771484,458.458008 422.254669,462.025146 
	C426.225433,463.518799 429.712708,465.756714 433.604584,467.226715 
	C435.457581,467.926575 438.322327,467.178223 439.168945,468.955719 
	C442.388092,475.714386 447.380463,477.109680 454.651031,477.293182 
	C461.356598,477.462433 467.802155,481.376373 474.772980,482.498871 
	C477.754211,482.978943 479.077515,483.091034 479.869019,480.174438 
	C481.071960,475.742065 484.767487,473.046814 486.901215,469.276398 
	C488.708954,470.411804 489.175415,471.888306 489.726044,473.256531 
	C491.351288,477.294952 493.492279,476.980591 495.826538,473.969116 
	C497.764130,471.469360 500.832977,470.023773 501.917023,467.024628 
	C505.986908,467.991089 509.109955,470.635651 512.666748,471.762604 
	C516.483154,472.971832 520.839050,472.478546 524.960876,472.728333 
	C525.998596,474.077942 524.970398,476.146759 527.685791,476.836945 
	C539.799133,479.915802 551.381653,477.859528 562.017761,472.380859 
	C567.989685,469.304688 574.225342,466.525787 579.898010,462.966583 
	C590.327148,456.423035 597.841919,446.437073 606.914307,439.364471 
	C606.608643,434.523956 600.254761,434.263550 601.507324,429.211975 
	C602.353394,425.799683 600.459229,421.496674 604.881165,419.402222 
	C604.473572,417.316833 601.718506,417.443542 601.244202,415.042480 
	C604.380371,413.707153 604.659607,409.428040 608.086182,408.472595 
	C608.457947,406.465820 605.733398,405.886566 606.586182,404.213318 
	C608.513062,400.432373 607.499451,397.288666 604.906494,394.947174 
	C605.037292,392.239136 607.403442,393.145813 607.995483,392.340515 
	C609.080383,386.161163 606.057678,379.786163 611.004517,374.633484 
	C611.921387,373.678375 611.475464,372.484955 611.097351,371.332977 
	C609.327209,365.940033 610.464966,362.638123 615.192810,359.200684 
	C617.429077,357.574799 617.455750,354.093750 614.887695,353.191315 
	C612.015686,352.182098 610.877502,350.048553 609.390503,347.819092 
	C605.764648,342.382812 601.452637,337.517395 595.953857,333.868317 
	C589.517517,329.597015 584.721863,324.045715 582.116577,316.703613 
	C580.688354,312.678680 578.141113,310.009613 573.806030,308.890137 
	C566.565369,307.020416 559.421814,304.777679 552.211060,302.787201 
	C550.365417,302.277771 548.366516,301.571655 546.123657,303.674469 
	C549.004211,308.592834 553.188904,312.720215 556.086853,317.727875 
	C559.500854,323.627197 564.140808,329.917053 570.678040,333.803589 
	C573.731750,335.619049 575.791504,338.497467 576.810974,342.038300 
	C577.796143,345.459930 580.096863,347.771606 583.350220,349.143494 
	C590.262878,352.058319 595.414856,358.337433 603.738220,358.819611 
	C607.936707,359.062836 607.440369,363.281250 607.529053,366.770569 
	C607.618591,370.291656 605.499390,370.348206 602.720886,371.196075 
	C602.893311,368.726990 602.071350,366.694550 603.108093,364.573792 
	C604.298889,362.137878 602.800964,361.257385 600.767212,360.750732 
	C598.221924,360.116608 595.785156,359.835480 594.626343,363.398193 
	C591.659546,358.022156 587.391418,355.348236 582.480408,353.342407 
	C578.638428,351.773285 574.514282,350.113037 573.061523,345.780701 
	C571.449097,340.972351 569.028015,336.898376 564.922180,333.906403 
	C562.192871,331.917511 559.899414,329.580750 558.202271,326.623169 
	C555.428894,321.789917 550.927002,318.563995 548.640259,312.817474 
	C544.667175,302.833252 534.959229,299.126831 524.569031,298.497040 
	C510.755829,297.659760 496.896790,297.582764 483.167389,299.527771 
	C442.216034,305.329102 405.852417,321.448608 374.748230,348.859375 
	C335.432678,383.506500 313.574127,427.437805 306.349762,478.984619 
	C305.797729,482.923431 304.143585,486.984436 306.379242,491.337036 
	C310.079163,489.011261 310.509857,484.659607 313.755859,480.893646 
	C313.245758,487.561188 315.364868,493.229858 311.590485,498.346832 
	C311.208466,498.864746 311.453552,499.986572 311.648651,500.767975 
	C315.419159,515.868591 322.120331,529.661255 330.500641,542.688538 
	C330.926880,543.351135 331.712158,543.845642 332.425720,544.249939 
	C336.104950,546.334656 340.113190,547.941467 344.286621,547.479431 
	C347.569183,547.115967 349.475067,548.426758 351.617249,550.461731 
	C346.058472,556.403259 353.671753,556.473694 355.333527,559.083191 
	C359.010773,564.857544 360.731598,558.410217 363.339020,556.947266 
	C363.544861,559.424805 361.093475,561.520813 363.912109,563.294556 
	C369.021820,566.510132 373.280884,564.631226 376.930450,560.453552 
	C378.810303,563.431091 378.391449,565.691467 377.736603,567.956848 
	C377.054321,570.317078 377.801880,572.328003 379.594055,573.769958 
	C381.640778,575.416687 382.843201,573.279053 384.302094,572.363647 
	C385.489349,571.618652 386.602753,570.237000 388.439911,571.793579 
	C386.186218,575.398376 389.296143,578.232788 389.745636,581.438599 
	C390.346375,585.722595 391.106476,587.960266 395.701080,586.729187 
	C396.740753,588.998779 395.093811,592.564758 397.588531,593.270264 
	C404.028442,595.091431 410.699493,596.104065 417.295654,597.347168 
	C417.830170,597.447876 418.507172,596.861267 419.101990,596.562378 
	C425.711365,593.240479 427.420532,587.925598 424.914978,578.508667 
	C422.756744,570.396973 426.091461,564.570862 434.682648,561.863220 
	C433.649231,564.163391 432.739777,566.223816 430.611542,567.528137 
	C429.451233,568.239197 428.258575,569.375549 428.576294,570.743958 
	C430.063660,577.151062 430.541931,583.651794 431.228241,590.165833 
	C431.634705,594.023560 433.252563,597.863098 433.173248,601.881287 
	C433.000885,610.615784 435.806610,618.933472 436.650024,627.525024 
	C436.765472,628.701172 437.170685,630.228577 439.019165,630.490601 
	C441.918030,629.607666 441.644073,627.120544 441.616547,624.818665 
	C441.513123,616.187988 442.224579,607.540771 439.905945,598.995789 
	C439.220825,596.470886 438.380371,592.721130 442.852814,591.762634 
	C450.817108,590.055725 452.536713,590.589294 453.941345,595.914368 
	C456.270569,604.744690 458.253815,613.666260 460.583618,622.496399 
	C461.892822,627.458374 461.475555,632.833801 464.124725,638.522278 
	C464.860870,636.111328 465.200775,634.663269 465.737793,633.292480 
	C470.038788,622.313110 469.838165,610.832520 469.710297,599.328796 
	C469.651947,594.074829 472.299988,592.612854 477.110382,594.743591 
	C479.446167,595.778198 480.099701,597.735840 480.402679,599.930908 
	C481.696167,609.302917 482.142212,618.804871 484.369446,628.030029 
	C485.570892,633.006348 485.467041,638.356445 488.375214,643.033875 
	C490.610474,636.144348 492.827911,629.428345 493.711151,622.341003 
	C494.537140,615.713135 494.605499,609.058716 494.840302,602.403687 
	C494.937714,599.642334 496.366943,597.675781 499.226807,597.067871 
	C502.080963,596.461060 503.004333,598.542236 503.899689,600.561401 
	C504.451599,601.805969 504.980682,603.357178 506.484222,603.285339 
	C510.462433,603.095276 510.562653,606.134033 511.012054,608.615234 
	C511.662079,612.204407 511.768829,615.889587 512.361511,619.492004 
	C513.684998,627.536865 515.165710,635.555786 516.582458,643.585266 
	C518.600342,639.700928 518.172668,635.540588 519.019592,632.086792 
	C521.486572,622.026123 520.185913,611.860474 521.506958,601.838745 
	C522.245239,596.237610 524.022034,594.296692 529.236694,594.261169 
	C533.230103,594.233948 535.164001,596.635254 535.336609,602.244019 
	C535.703979,614.176208 539.029907,625.519836 542.058167,636.927795 
	C542.396973,638.204041 542.516479,639.735352 544.236816,639.882141 
	C546.381104,640.065063 546.186523,638.129211 546.839233,636.871216 
	C550.029053,630.723450 547.748291,624.451294 547.177185,618.294556 
	C546.499573,610.989380 545.990051,603.722839 546.850830,596.424500 
	C547.080078,594.480957 547.302307,591.382202 549.251038,591.384583 
	C554.269409,591.390686 555.431335,587.999512 557.041809,584.535889 
	C557.660156,583.205933 558.974121,582.029358 560.657227,582.348938 
	C562.438599,582.687256 562.746460,584.379456 562.943115,585.857788 
	C563.161926,587.502258 563.107849,589.181274 563.218018,590.842163 
	C563.941101,601.743286 562.573486,612.792664 565.362427,623.539490 
	C566.273071,627.048401 565.513062,631.087585 568.962341,634.157166 
	C568.619873,615.309326 573.078308,597.612244 580.465698,580.771057 
	C579.827759,579.679626 577.823730,580.486145 578.216980,577.598694 
	C581.474426,578.066772 583.102295,579.578552 582.490112,582.901550 
	C581.794556,586.677490 582.318787,590.207947 583.906860,593.601624 
	C586.323242,598.765625 586.468262,604.191101 586.131226,609.733398 
	C585.919861,613.210083 585.394409,616.792480 586.752869,620.129456 
	C591.746155,632.395020 596.647705,644.658142 598.440491,657.935364 
	C598.847046,660.945923 602.248108,660.717896 604.447754,661.487122 
	C605.636963,661.902954 606.598999,660.643799 606.547241,659.300354 
	C606.305298,653.014954 605.789001,646.733521 605.756897,640.448669 
	C605.728149,634.824036 606.750427,629.256042 608.085083,623.804565 
	C608.685303,621.353088 611.030273,621.057190 613.330811,620.850647 
	C615.945618,620.615845 618.595093,619.714172 617.927795,616.335022 
	C617.242188,612.863281 619.116699,610.535400 621.031921,608.393677 
	C623.792236,605.307007 625.917603,601.747742 626.533936,597.904480 
	C628.207825,587.465454 635.111389,579.780579 639.822998,570.952881 
	C641.409119,567.981018 644.857788,567.926514 647.593323,566.879700 
	C650.078430,565.928833 650.251770,568.875000 651.678040,569.693787 
	C657.242004,572.888245 662.455139,577.103394 669.628296,575.732422 
	C675.842896,574.544678 682.131531,573.742859 688.344238,572.546509 
	C697.881897,570.709839 703.067627,561.633850 699.605042,552.599670 
	C698.048279,548.537903 697.604431,544.534302 698.457947,540.368225 
	C699.168518,536.899536 698.453613,533.773438 696.749512,530.767212 
	C690.814270,520.296265 686.662537,509.562439 691.533813,497.368866 
	C691.996277,496.211365 691.980347,494.678619 691.688049,493.437500 
	C690.730835,489.373779 692.360596,486.174042 695.008484,483.481018 
	C697.209656,481.242279 698.505798,478.591858 699.386230,475.737762 
	C702.037842,467.141602 696.871033,461.020386 687.863098,461.857758 
	C684.956482,462.128021 682.030701,462.193390 678.204285,462.402069 
	C680.476501,456.698578 674.692383,454.968018 674.196045,450.389893 
	C671.369934,451.864471 670.228149,454.121155 668.576355,455.929901 
	C664.293152,460.620117 665.235352,468.263275 659.242371,471.974945 
	C658.194580,472.623901 657.932739,474.353241 658.189636,475.691193 
	C658.877869,479.276855 659.043152,483.212006 661.158875,486.169098 
	C663.450256,489.371704 662.809937,491.873718 661.187195,494.868256 
	C655.280396,505.768402 646.285156,513.589905 635.606995,519.246948 
	C618.850159,528.124512 600.719849,530.696411 582.245667,526.961670 
	C571.650513,524.819702 560.892090,522.003296 552.372375,514.248352 
	C549.195740,511.356842 545.380920,509.175415 541.272583,507.607513 
	C537.129761,506.026489 533.586731,506.094025 530.805237,510.159729 
	C529.910339,511.467865 528.577454,513.196899 526.727661,512.108398 
	C524.952942,511.064148 523.095032,509.749664 523.376221,507.058075 
	C524.542603,495.892853 515.302979,491.444946 508.957947,483.424347 
	C507.090393,485.869995 505.940094,487.506500 504.657318,489.031586 
	C500.799896,493.617554 497.035339,498.080750 494.019379,503.486237 
	C490.955109,508.978210 488.719910,514.358276 488.184113,520.403015 
	C487.857727,524.085205 486.695770,525.370911 483.341766,523.596069 
	C479.439606,521.531250 474.324646,522.163391 471.312073,518.114868 
	C471.033813,517.740967 469.687073,517.565002 469.547241,517.773560 
	C466.899536,521.722900 461.011993,521.858521 459.105682,526.572632 
	C456.146790,533.889465 450.938873,536.952942 443.138397,535.252747 
	C445.116302,528.673706 445.116302,528.673706 443.553131,525.207520 
	C442.009125,525.097351 441.818512,528.003113 439.862701,526.908447 
	C438.231110,525.995239 436.677765,526.622681 435.033020,526.885742 
	C409.491882,530.971497 386.354553,526.324524 367.026031,508.001251 
	C365.694550,506.739075 364.337372,505.047516 362.379547,505.464600 
	C357.593567,506.484131 353.379639,503.617554 348.432343,504.106262 
	C348.645660,501.270142 348.268188,497.646576 345.633514,497.882050 
	C337.910400,498.572327 339.521912,489.552490 333.983490,488.255005 
	C336.753571,487.688751 339.204315,487.412567 341.568817,487.746643 
	C346.390015,488.427795 351.151550,489.342529 356.005188,485.488525 
M346.152344,617.382812 
	C344.228821,616.784119 342.179810,618.590393 340.063965,617.379272 
	C341.791473,614.370789 345.726990,615.671997 347.260590,612.908386 
	C346.666290,611.201843 345.870087,609.671143 345.471375,607.877136 
	C344.742920,604.599304 345.206787,600.922363 341.598175,598.313965 
	C336.567749,594.677673 337.330078,590.092773 342.969086,587.449524 
	C336.900696,577.912231 328.924835,569.760498 323.142822,559.434570 
	C325.536072,557.615845 326.720734,553.635132 324.766937,552.361877 
	C319.851685,549.158813 318.253143,544.180603 315.177063,539.950989 
	C311.197327,534.478882 309.510162,529.544739 310.244507,523.143738 
	C310.513580,520.798096 308.810425,518.722656 306.419342,518.701965 
	C303.706329,518.678406 304.265259,521.309021 304.405640,522.953613 
	C304.927979,529.074890 305.482178,535.205444 306.375000,541.280945 
	C309.313477,561.276611 314.499237,580.637756 322.837616,599.120972 
	C336.238983,628.827087 356.177979,653.536255 380.605774,674.775391 
	C387.414948,680.695801 393.014893,687.233459 394.668427,696.328491 
	C395.434082,700.539734 399.508972,702.432617 400.929810,705.623108 
	C405.285400,715.403687 407.282806,725.822876 406.435547,736.721375 
	C405.971252,742.693298 406.352539,748.731079 406.352539,754.821838 
	C408.586823,753.120850 407.393768,750.479065 408.140076,748.381653 
	C411.295654,739.513306 414.462555,730.697937 412.697327,720.892395 
	C412.184662,718.044800 410.860046,715.147949 412.429413,711.773865 
	C416.008453,704.078979 422.371460,699.052612 428.342712,693.586243 
	C428.457214,693.481445 428.909729,693.745789 429.201599,693.837036 
	C428.517822,698.460205 430.513184,701.616821 434.612579,703.470459 
	C436.831177,704.473572 439.234924,705.067078 441.453796,706.069641 
	C444.675049,707.525146 447.777954,709.133728 451.252808,706.692383 
	C452.351746,705.920288 453.682800,706.205139 454.396637,707.236145 
	C459.091766,714.017456 467.128479,710.944214 473.285553,713.558289 
	C475.949707,714.689331 479.422485,712.448547 482.246704,711.133301 
	C485.238953,709.739624 487.269775,710.719604 489.400482,712.590942 
	C491.703217,714.613281 489.570679,716.185669 488.938019,717.887390 
	C487.633148,721.397217 487.701141,724.189026 492.294861,724.798584 
	C494.745758,725.123901 496.279205,726.627747 496.845612,728.868958 
	C497.745514,732.429749 499.079803,734.924683 503.511719,734.631470 
	C505.979156,734.468201 507.563019,736.744080 508.943054,738.635376 
	C510.527435,740.806702 511.951538,743.095093 513.753601,745.794373 
	C520.228943,735.519592 530.971008,728.098694 529.112305,714.391968 
	C531.427795,713.795105 534.176758,715.171631 535.531311,713.549622 
	C537.739990,710.904968 539.841125,713.223450 541.909424,712.957886 
	C544.922058,707.455322 548.859924,707.159058 552.254944,712.350342 
	C554.492737,715.772095 558.723938,715.321167 561.185730,717.735352 
	C562.843933,717.051880 562.882019,714.839355 564.405212,714.912109 
	C570.595093,717.429077 572.115784,722.085449 571.399353,727.910522 
	C571.278198,728.895752 571.352722,729.907776 571.369995,730.906860 
	C571.391541,732.149658 571.701111,733.301575 573.091370,733.598572 
	C574.511230,733.902039 575.191956,733.013123 575.607666,731.770325 
	C577.222046,726.943787 580.278076,722.158630 575.817383,717.231323 
	C574.867432,716.181946 574.407654,714.834412 574.994690,713.517700 
	C576.431458,710.294678 576.764648,706.933105 576.273376,703.650818 
	C576.908081,703.315491 577.180847,703.106323 577.488159,703.020020 
	C579.095337,702.568604 581.466797,705.066956 582.280762,702.438660 
	C583.122009,699.722046 579.957520,699.675964 578.457581,698.718689 
	C575.358276,696.740723 572.073792,695.046997 568.827576,693.307190 
	C566.481995,692.050049 563.799194,689.194458 561.633057,692.956299 
	C559.870911,696.016541 557.742188,696.042419 554.977173,695.396362 
	C551.691284,694.628601 549.021057,692.866150 546.611938,690.652039 
	C550.011719,685.070007 547.973877,679.213501 548.077454,673.596252 
	C548.125854,670.973328 548.956238,667.585266 545.175232,665.203979 
	C544.479431,667.397461 543.686279,669.194519 543.355774,671.072937 
	C542.406006,676.472168 541.791260,681.932495 540.763306,687.315063 
	C539.848145,692.106995 536.115845,693.818481 531.944763,691.607117 
	C529.611206,690.370056 529.026428,687.970276 528.676453,685.717773 
	C527.862854,680.480408 527.362549,675.194824 526.702942,669.932861 
	C526.264954,666.437927 526.434937,662.761353 524.269043,659.822754 
	C522.556946,660.011475 522.508606,661.107056 522.136047,662.012573 
	C519.368774,668.737671 518.539429,675.814087 518.339233,682.993652 
	C518.235779,686.706116 518.040527,690.134216 512.975159,690.231995 
	C508.528229,690.317810 505.498322,689.052490 505.381134,683.936096 
	C505.328064,681.619629 505.048523,679.285889 504.628845,677.004639 
	C503.550964,671.145508 504.416748,664.935242 501.848816,658.947388 
	C499.808411,660.898071 500.132507,663.073242 499.668365,664.936279 
	C497.939056,671.877991 498.476532,679.174805 496.434265,686.089600 
	C495.670380,688.676025 494.803101,690.727966 491.438141,690.412354 
	C488.213684,690.109863 484.943909,690.208618 483.972229,686.131775 
	C483.471069,684.028992 483.136139,681.877258 482.497589,679.818481 
	C480.859009,674.535461 480.394012,668.832458 477.158722,663.833313 
	C475.810486,664.710510 475.355164,665.716858 475.402771,666.932800 
	C475.624908,672.604919 475.038330,678.220703 474.381317,683.841125 
	C474.102356,686.227295 474.984039,689.132202 471.178131,689.464050 
	C467.885925,689.751099 464.647461,689.760925 463.319733,685.912537 
	C461.591217,680.902588 459.479980,675.992188 459.758545,670.472229 
	C459.966583,666.349731 458.873077,662.395264 457.394836,658.489380 
	C454.574463,666.371277 455.181885,674.384277 455.996185,682.445679 
	C456.209259,684.555420 457.336060,687.667786 454.018372,688.259277 
	C450.838226,688.826233 447.189209,689.216614 445.417297,685.199707 
	C444.948212,684.136230 444.624451,683.008545 444.151367,681.947083 
	C443.514679,680.518677 443.487885,678.229004 441.184418,678.621643 
	C438.963348,679.000183 439.264679,681.172546 439.383392,682.726318 
	C439.683105,686.648560 437.774628,687.795593 434.265808,687.244141 
	C429.504211,686.495850 424.719421,685.860840 419.995239,684.922119 
	C417.148682,684.356445 414.281982,683.132507 414.018951,679.751099 
	C413.558075,673.826294 412.145111,668.359558 410.070129,662.680237 
	C407.146942,654.679443 408.755859,645.907898 410.235138,637.515991 
	C410.729218,634.713196 411.527710,631.987793 414.498383,630.589111 
	C415.832458,629.961060 416.397522,628.786255 415.974121,627.257507 
	C414.141663,620.641174 414.546143,613.763977 413.645233,607.037292 
	C413.380920,605.064026 412.693604,603.508057 410.745483,602.769165 
	C408.894958,602.067200 407.573151,603.061035 406.275269,604.201721 
	C400.282593,609.468384 398.926147,618.921631 403.096008,625.732849 
	C405.201355,629.171875 406.449219,632.796265 406.414398,637.029114 
	C406.350067,644.844971 405.247162,652.813965 406.894135,660.457764 
	C409.059235,670.506226 409.123199,679.590881 399.915436,686.770630 
	C397.754791,681.471130 397.638306,673.869202 389.308563,672.378479 
	C390.223450,667.508362 385.694397,665.545898 383.590546,662.170227 
	C380.658661,657.466003 376.341125,659.701477 372.334259,659.969971 
	C372.840942,657.619446 376.573181,657.484985 375.423004,655.014282 
	C373.862518,651.662170 370.449280,655.272461 368.247589,653.598145 
	C369.747314,649.596313 366.292877,645.959900 367.435486,641.784668 
	C367.865173,640.214539 369.540100,638.326355 368.288544,636.624939 
	C364.694489,631.738892 362.466736,625.566528 356.306000,622.994995 
	C352.899384,621.572998 349.865326,619.598572 346.152344,617.382812 
M618.473206,349.999329 
	C620.282471,349.835815 621.429321,348.595032 622.578430,347.408264 
	C625.362549,344.532898 627.633240,343.904144 628.521606,349.280182 
	C630.889282,345.625488 633.518372,343.586761 637.779297,344.340271 
	C635.060913,343.247253 634.567505,338.224609 630.310425,341.102478 
	C630.205933,339.437317 631.757324,337.190247 629.496033,337.090027 
	C626.171021,336.942719 625.519714,340.245667 624.198486,342.837250 
	C623.692322,339.405304 620.649109,337.546570 619.908813,334.469391 
	C618.256042,327.598724 613.134033,324.008698 606.333496,325.116699 
	C605.093506,325.318726 604.412109,324.835083 603.934631,323.918030 
	C601.504028,319.249359 594.634888,315.542297 588.643921,316.412048 
	C593.773865,322.191711 597.632080,328.309784 602.896423,333.350830 
	C606.837585,337.124786 611.094421,340.606598 612.963257,346.102631 
	C613.665833,348.168884 615.397827,349.677887 618.473206,349.999329 
M717.299622,236.285431 
	C720.460388,234.410400 722.886536,232.008774 723.539307,227.733246 
	C720.195618,227.980804 718.076294,229.770523 715.970642,231.490570 
	C713.627380,233.404755 714.064575,235.051651 717.299622,236.285431 
M231.211945,313.691956 
	C228.503906,311.943665 227.570358,314.119690 225.903473,316.057007 
	C228.979095,318.689056 232.205658,320.001007 236.232803,320.538727 
	C236.069321,317.036407 233.372620,315.938385 231.211945,313.691956 
M439.596832,674.427063 
	C440.670502,675.909851 442.120880,676.040649 442.369598,674.200500 
	C442.834869,670.758179 443.417969,667.084229 440.428009,663.677063 
	C438.568237,667.193176 439.635681,670.502563 439.596832,674.427063 
M600.432922,671.050049 
	C602.810852,671.123901 604.652710,669.994873 604.275940,667.632263 
	C603.829163,664.830505 601.432434,664.447815 598.916382,664.788208 
	C597.914795,667.175293 598.093567,669.150452 600.432922,671.050049 
M530.875183,237.729309 
	C530.028687,239.547256 527.851440,241.495911 530.914673,243.116898 
	C532.144714,243.767792 534.331543,244.174957 534.597290,242.177536 
	C534.885193,240.012421 535.258606,236.945892 530.875183,237.729309 
M398.751709,805.621338 
	C398.614471,806.752380 397.751526,808.070435 400.027802,809.138000 
	C401.046448,804.199280 402.415466,799.680359 400.852722,794.807861 
	C400.222351,798.169983 399.591980,801.532104 398.751709,805.621338 
M251.505447,587.908264 
	C252.623901,588.692505 253.365219,590.298462 255.570007,589.567261 
	C253.009369,586.819153 253.769653,582.793396 250.654419,578.730957 
	C250.949905,582.609802 250.028122,584.994812 251.505447,587.908264 
M506.380524,863.627747 
	C503.691406,867.620483 505.917419,871.867615 505.816132,876.002808 
	C507.376495,872.151123 507.037476,868.151978 506.380524,863.627747 
M489.870850,833.102417 
	C487.537231,835.646240 486.248199,838.154907 490.661865,841.670715 
	C490.086334,837.988403 493.140778,835.626404 489.870850,833.102417 
z"/>
<path fill="currentcolor" opacity="1.000000" stroke="none" 
	d="
M172.934860,418.831665 
	C173.009033,417.556702 172.864914,416.451263 172.665634,414.922668 
	C179.411865,414.534027 185.982101,414.148682 192.553360,413.781921 
	C194.156769,413.692444 195.358795,414.477722 195.049118,416.084900 
	C194.492538,418.973572 196.806473,420.094879 198.186066,421.714905 
	C194.294678,429.264709 191.937958,429.751770 184.072159,424.323456 
	C181.460022,422.520813 179.339752,419.919586 176.325226,423.827728 
	C175.536377,424.850464 173.809448,424.036652 172.550873,423.564362 
	C169.436447,422.395752 166.296143,421.292816 163.206406,420.062561 
	C158.962616,418.372864 155.143936,415.763275 150.222534,415.640839 
	C147.812042,415.580811 144.958450,414.468750 144.067566,411.431061 
	C144.761871,409.646942 146.085754,410.010162 147.438461,410.208069 
	C153.618332,411.112183 159.155502,413.798798 164.794174,416.260376 
	C167.345123,417.373993 169.716415,419.140472 172.934860,418.831665 
z"/>
<path fill="currentcolor" opacity="1.000000" stroke="none" 
	d="
M184.373291,658.352051 
	C176.433304,661.395630 168.890732,664.406372 161.361282,667.449524 
	C156.178619,669.544250 150.900269,671.242065 144.492050,672.074524 
	C147.444626,668.094177 151.421921,667.487549 154.744232,666.212280 
	C169.008743,660.737000 182.815155,654.294250 196.471832,647.486145 
	C201.851547,644.804138 207.773422,644.971741 213.747238,644.711426 
	C204.895813,651.094788 195.251846,655.584534 184.373291,658.352051 
z"/>
<path fill="currentcolor" opacity="1.000000" stroke="none" 
	d="
M834.667603,382.499847 
	C850.189209,376.776001 865.335876,371.155457 881.264648,365.244720 
	C880.667358,368.492035 878.645386,368.747894 877.204590,369.400513 
	C865.990662,374.479828 854.490967,378.995758 843.575378,384.643829 
	C835.285461,388.933258 826.897888,392.574768 817.870544,394.818817 
	C816.606995,395.132935 815.195129,396.052673 814.464539,394.243469 
	C813.804871,392.609924 815.108032,391.804718 816.328918,391.213348 
	C822.304993,388.318756 828.302673,385.468842 834.667603,382.499847 
z"/>
<path fill="currentcolor" opacity="1.000000" stroke="none" 
	d="
M841.693604,623.382690 
	C835.199951,624.976807 831.661865,623.633362 828.947876,618.829102 
	C828.223022,617.546082 828.322327,615.989075 829.456604,615.177490 
	C831.610413,613.636414 833.582214,611.106445 836.849304,612.865967 
	C845.793884,617.682861 855.799255,620.005188 864.792847,624.686401 
	C868.189758,626.454468 871.644714,627.850830 875.564392,628.469788 
	C871.939941,629.489014 868.436279,629.667542 864.808472,628.630127 
	C858.719360,626.888672 852.860962,624.590576 847.135742,621.906494 
	C845.161255,620.980835 843.021423,619.870300 841.693604,623.382690 
z"/>
<path fill="currentcolor" opacity="1.000000" stroke="none" 
	d="
M571.365112,165.909592 
	C571.933228,164.205368 571.052002,162.533310 572.533997,161.444336 
	C577.399963,176.033081 580.232483,190.505905 571.279114,204.726349 
	C568.878174,204.451584 568.328186,202.492706 568.927002,200.775558 
	C572.313721,191.064163 568.861633,181.000885 570.657227,171.232727 
	C570.955750,169.608398 571.064819,167.949234 571.365112,165.909592 
z"/>
<path fill="currentcolor" opacity="1.000000" stroke="none" 
	d="
M382.815308,790.366455 
	C381.383972,785.849792 379.154877,786.721375 376.383301,788.648560 
	C374.236115,790.141541 373.065979,793.376953 369.296906,792.798584 
	C368.912323,788.871643 371.711029,786.823364 374.250641,785.631165 
	C379.701843,783.072327 383.328430,779.316284 385.006897,773.565491 
	C385.208435,772.874939 385.615112,771.990479 386.751923,771.996643 
	C388.053955,773.340393 386.902100,774.694153 386.738403,776.061218 
	C386.270691,779.968445 384.870087,783.759949 385.641541,787.833313 
	C385.937653,789.396851 385.740509,791.404358 382.815308,790.366455 
z"/>
<path fill="currentcolor" opacity="1.000000" stroke="none" 
	d="
M207.907684,704.843994 
	C203.892670,706.876282 202.938248,711.825012 198.816727,713.536621 
	C197.681503,707.725464 206.691345,697.306335 214.491638,695.276855 
	C213.243027,699.196899 209.292313,700.968750 207.907684,704.843994 
z"/>
<path fill="currentcolor" opacity="1.000000" stroke="none" 
	d="
M190.431946,360.681976 
	C187.252136,358.383484 184.368317,356.297516 181.484512,354.211548 
	C181.779678,353.744446 182.074844,353.277374 182.370010,352.810272 
	C191.607773,357.846344 200.845551,362.882416 210.083328,367.918457 
	C209.875107,368.381195 209.666885,368.843903 209.458679,369.306641 
	C202.559097,368.151550 196.806595,364.113098 190.431946,360.681976 
z"/>
<path fill="currentcolor" opacity="1.000000" stroke="none" 
	d="
M327.854767,778.876343 
	C330.493927,776.726379 331.863373,773.543213 335.297638,772.709412 
	C334.622406,778.242615 322.223633,790.179504 316.354187,791.755005 
	C319.746368,787.954468 323.679474,783.547974 327.854767,778.876343 
z"/>
<path fill="currentcolor" opacity="1.000000" stroke="none" 
	d="
M748.035156,711.026733 
	C750.402649,713.554565 753.925293,713.083008 756.047180,715.542419 
	C752.895935,715.668518 749.763367,715.732422 747.291138,713.249817 
	C742.528809,708.467407 736.812012,705.066711 730.996155,701.792236 
	C728.340271,700.296814 726.057312,698.497864 725.732056,693.969849 
	C732.314148,701.606262 741.514282,704.155701 748.035156,711.026733 
z"/>
<path fill="currentcolor" opacity="1.000000" stroke="none" 
	d="
M816.613403,345.561829 
	C819.706177,340.434143 824.635010,338.422577 829.762756,336.477600 
	C827.665405,340.779572 824.252441,344.002167 820.673584,346.946594 
	C819.813843,347.653931 817.421082,348.203156 816.613403,345.561829 
z"/>
<path fill="currentcolor" opacity="1.000000" stroke="none" 
	d="
M256.190094,654.025574 
	C259.605316,652.659180 262.185364,650.094360 265.683167,649.922852 
	C265.928436,650.374878 266.173706,650.826965 266.418976,651.278992 
	C261.759125,653.763855 257.099274,656.248718 251.657639,659.150452 
	C252.048767,655.770691 254.332443,655.308838 256.190094,654.025574 
z"/>
<path fill="currentcolor" opacity="1.000000" stroke="none" 
	d="
M780.557495,371.971619 
	C781.414978,371.647400 782.003845,371.485870 782.592773,371.324310 
	C779.251526,375.936707 775.019897,378.979523 769.696655,380.264130 
	C769.454773,379.904297 769.212891,379.544434 768.971069,379.184601 
	C772.743652,376.834503 776.516296,374.484375 780.557495,371.971619 
z"/>
<path fill="currentcolor" opacity="1.000000" stroke="none" 
	d="
M154.277100,300.759277 
	C156.784149,303.361481 159.038681,305.725433 161.293213,308.089355 
	C160.958298,308.420471 160.623383,308.751556 160.288467,309.082672 
	C155.902924,306.610626 152.666840,302.892761 149.132004,298.483917 
	C151.980591,297.920776 152.832169,299.567139 154.277100,300.759277 
z"/>
<path fill="currentcolor" opacity="1.000000" stroke="none" 
	d="
M556.182251,818.451233 
	C557.172363,822.113403 555.006104,823.669678 551.886414,825.174438 
	C550.821655,821.050049 552.691589,819.314819 556.182251,818.451233 
z"/>
<path fill="currentcolor" opacity="1.000000" stroke="none" 
	d="
M751.628296,830.209778 
	C751.189514,829.311951 750.822693,828.763977 750.518921,828.183105 
	C749.700012,826.617004 749.741272,825.144836 751.736450,824.796448 
	C753.275940,824.527710 754.146606,825.665039 754.197388,827.199646 
	C754.260193,829.098267 754.212402,831.000610 754.212402,833.044556 
	C752.053833,833.566772 751.939941,832.003784 751.628296,830.209778 
z"/>
<path fill="currentcolor" opacity="1.000000" stroke="none" 
	d="
M222.326736,746.545776 
	C223.622131,745.646667 224.478378,744.528198 226.517181,744.802490 
	C224.353683,747.696228 223.526917,751.335999 219.128479,751.266052 
	C218.907135,748.714478 220.792358,747.943848 222.326736,746.545776 
z"/>
<path fill="currentcolor" opacity="1.000000" stroke="none" 
	d="
M757.879150,218.722916 
	C756.172180,220.888672 754.682373,220.299347 753.955261,218.508438 
	C752.999084,216.153320 754.344849,214.870575 756.633667,214.493240 
	C758.280396,215.431870 758.256409,216.871384 757.879150,218.722916 
z"/>
<path fill="currentcolor" opacity="1.000000" stroke="none" 
	d="
M817.335205,285.275482 
	C818.874084,283.939789 820.211365,283.049988 822.270813,284.187378 
	C821.150024,287.803864 817.720947,287.702057 814.675232,289.352051 
	C814.719238,287.056152 816.162109,286.434418 817.335205,285.275482 
z"/>
<path fill="currentcolor" opacity="1.000000" stroke="none" 
	d="
M739.420776,769.712769 
	C741.226990,769.968872 742.921570,769.814209 742.977783,772.397766 
	C740.016968,774.221191 737.664062,772.773621 735.262390,770.933594 
	C736.049133,768.690063 737.801819,770.033203 739.420776,769.712769 
z"/>
<path fill="currentcolor" opacity="1.000000" stroke="none" 
	d="
M753.824097,247.086731 
	C755.303711,247.314560 756.538330,247.329178 757.145691,248.958649 
	C754.908264,250.921509 752.461609,250.221466 749.938416,249.726135 
	C749.936340,246.881668 752.003662,247.413620 753.824097,247.086731 
z"/>
<path fill="currentcolor" opacity="1.000000" stroke="none" 
	d="
M493.838989,524.876343 
	C497.103577,519.970032 500.991699,516.079468 504.893677,512.202759 
	C507.049927,510.060425 509.771759,509.102539 511.976929,511.433014 
	C522.150940,522.184998 532.694885,532.759216 536.873291,547.625122 
	C537.399170,549.495972 537.399963,551.608582 537.216064,553.568970 
	C536.311157,563.213989 528.586182,567.792908 519.633972,564.100220 
	C510.442963,560.309021 507.307495,560.280090 498.431915,563.904785 
	C489.203979,567.673340 482.434143,563.626831 481.520874,553.770447 
	C480.983551,547.971436 481.906860,542.482971 485.217621,537.561401 
	C488.004913,533.417969 490.832062,529.301392 493.838989,524.876343 
z"/>
<path fill="currentcolor" opacity="1.000000" stroke="none" 
	d="
M588.474731,336.617706 
	C589.601868,339.013062 588.832825,341.048340 588.234741,343.076172 
	C587.563477,345.352234 586.178711,346.055054 584.163391,344.612823 
	C582.152039,343.173401 580.171814,341.670685 578.313171,340.041473 
	C574.046875,336.301697 574.158447,332.716553 578.841248,326.395599 
	C580.953735,329.452148 583.193970,332.818024 587.251404,328.072021 
	C585.850952,331.286652 589.263062,333.400024 588.474731,336.617706 
z"/>
<path fill="currentcolor" opacity="1.000000" stroke="none" 
	d="
M387.304871,535.084351 
	C385.658722,538.000366 384.272888,540.648926 381.669586,542.350708 
	C380.491486,543.120911 379.211731,543.520874 377.912506,542.987976 
	C376.390778,542.363831 376.538483,540.884460 376.596375,539.564087 
	C376.800873,534.900391 379.141144,531.070374 381.600159,527.348389 
	C382.606354,525.825378 384.367401,525.513672 386.053955,526.263489 
	C387.856171,527.064636 389.000854,528.620056 388.869232,530.559692 
	C388.772949,531.978333 387.954254,533.347961 387.304871,535.084351 
z"/>
<path fill="currentcolor" opacity="1.000000" stroke="none" 
	d="
M538.202820,312.090149 
	C535.846191,311.820038 535.506958,310.752319 537.226257,309.756104 
	C538.951904,308.756226 540.875854,309.397064 542.203796,310.807617 
	C544.061035,312.780457 546.961670,314.277863 546.599121,317.533661 
	C546.420715,319.135468 544.817627,319.957703 543.188171,319.732117 
	C540.885193,319.413269 539.834473,317.892242 539.819275,315.571777 
	C539.810730,314.274902 541.896179,312.139221 538.202820,312.090149 
z"/>
<path fill="currentcolor" opacity="1.000000" stroke="none" 
	d="
M544.978882,580.591980 
	C544.581482,577.695740 543.937744,574.754089 547.509460,574.311096 
	C550.505615,573.939514 551.256287,576.473816 551.759399,578.869995 
	C552.106934,580.524902 551.670105,581.943787 550.152100,582.691772 
	C548.011353,583.746521 546.289856,583.056824 544.978882,580.591980 
z"/>
<path fill="currentcolor" opacity="1.000000" stroke="none" 
	d="
M588.523804,447.784241 
	C586.860901,450.541168 585.659424,449.148560 585.047668,447.432526 
	C584.401978,445.621460 584.215515,443.605408 585.984985,441.225250 
	C586.975952,443.659607 587.752991,445.568329 588.523804,447.784241 
z"/>
<path fill="currentcolor" opacity="1.000000" stroke="none" 
	d="
M524.218872,450.925751 
	C525.843262,452.337341 526.742493,453.855530 524.807129,455.060822 
	C523.195190,456.064728 521.977051,454.678070 521.482422,453.273438 
	C520.725647,451.124481 521.654724,450.183380 524.218872,450.925751 
z"/>
<path fill="currentcolor" opacity="1.000000" stroke="none" 
	d="
M467.399536,699.539307 
	C454.013702,701.235046 441.419037,697.585449 439.032715,690.651611 
	C454.935669,694.682129 470.813721,693.222229 486.606079,694.759155 
	C480.735291,698.183472 474.284393,698.812561 467.399536,699.539307 
z"/>
<path fill="currentcolor" opacity="1.000000" stroke="none" 
	d="
M539.554688,695.540955 
	C541.174011,695.035645 542.429016,694.600769 543.718323,694.328247 
	C544.116821,694.244019 544.608765,694.601685 546.408264,695.223755 
	C539.708740,698.026733 534.359985,701.123047 527.851746,701.310791 
	C530.895569,697.932129 535.363220,697.420044 539.554688,695.540955 
z"/>
</svg>